<svg xmlns="http://www.w3.org/2000/svg" version="1.1" xmlns:xlink="http://www.w3.org/1999/xlink" xmlns:svgjs="http://svgjs.dev/svgjs" viewBox="0 0 800 800"><defs><linearGradient x1="50%" y1="0%" x2="50%" y2="100%" id="ccchaos-grad"><stop stop-color="hsl(162, 100%, 58%)" stop-opacity="1" offset="0%"></stop><stop stop-color="hsl(270, 73%, 53%)" stop-opacity="1" offset="100%"></stop></linearGradient></defs><g stroke-width="2.5" stroke="url(#ccchaos-grad)" fill="none" stroke-linecap="round"><path d="M374.32 120.42C375.4 109.18 394.07 115.39 406.37 131.14Q414.61 140.88 423.15 150.55 431.83 160.13 440.49 169.6 448.97 178.95 457.11 188.17 464.77 197.23 471.81 206.12 478.12 214.84 483.61 223.38 491.46 239.76 496.61 255.54 497.79 270.33 497.23 284.56 495.32 297.94 493.67 310.92 494.2 323.4 496.99 335.71 504.5 347.99 515.13 360.41 522.19 366.77 530.15 373.26 538.88 379.89 548.23 386.71 558.02 393.72 568.06 400.95 578.14 408.41 588.06 416.13 597.61 424.12 606.6 432.39 614.83 440.95 622.17 449.8 628.48 458.94 633.67 468.38 637.7 478.11 640.55 488.13 642.25 498.41 642.88 508.96 642.56 519.74 641.42 530.74 639.64 541.94 637.44 553.3 635.02 564.81 632.63 576.43 630.5 588.13 628.85 599.88 627.9 611.63 627.84 623.36 628.83 635.03 631 646.6 634.43 658.03 639.17 669.3 645.21 680.36 652.5 691.19C664.99 706.31 666.5 716.98 653.22 708.28Q636.84 694.76 620.46 680.25 604.09 667.13 587.71 657.57 571.33 653.12 554.95 654.53 538.57 661.55 522.2 673.04 505.82 687.1 489.44 701.44 473.06 713.69 456.69 721.85 440.31 724.57 423.93 721.41 407.55 712.88 391.18 700.39 374.8 685.99 358.42 672.04 342.04 660.84 325.67 654.21 309.29 653.26 292.91 658.13 276.53 668.03 260.16 681.33 243.78 695.85 227.4 709.2 211.02 719.19 194.65 724.19 178.27 723.36 161.89 716.85 145.52 705.73 129.14 691.81C115.85 680.05 105.34 658.78 109.87 651.56Q116.89 641.65 124.63 631.66 133.83 621.2 143.91 610.25 155.26 598.22 167.11 585.41 173.19 578.5 179.24 571.28 185.2 563.76 190.99 555.92 196.55 547.76 201.82 539.29 206.75 530.52 211.28 521.45 215.41 512.1 219.1 502.48 222.37 492.61 225.23 482.51 227.71 472.21 229.88 461.73 231.78 451.09 233.5 440.33 235.11 429.47 236.72 418.54 238.41 407.56 240.28 396.58 242.42 385.6 244.92 374.67 247.84 363.81 251.24 353.04 255.17 342.38 259.65 331.86 264.7 321.5 270.28 311.31 276.36 301.3 282.9 291.5 289.82 281.9 297.02 272.52 304.41 263.36 311.87 254.42 319.28 245.7 326.54 237.19 333.52 228.9 340.12 220.81 346.23 212.91 351.78 205.19 360.61 190.3 367.41 175.81 371.04 161.8 373.14 147.97 374.05 127.32 374.32 120.42" stroke-dasharray="6 3" transform="rotate(0, 400, 400)" opacity="1.00"></path><path d="M379.8 131.33C380.22 120.59 398.38 126.75 411.01 141.95Q419.21 151.36 427.5 160.7 435.76 169.96 443.82 179.12 451.57 188.16 458.86 197.09 465.59 205.87 471.65 214.5 476.97 222.97 481.48 231.26 487.6 247.21 491.32 262.6 491.72 277.05 490.77 290.95 489.03 304.01 487.77 316.65 488.83 328.73 492.07 340.58 499.73 352.28 510.23 364.02 517.08 369.98 524.74 376.02 533.1 382.17 542.02 388.46 551.36 394.9 560.94 401.52 570.59 408.34 580.12 415.36 589.34 422.62 598.09 430.12 606.19 437.88 613.52 445.91 619.94 454.2 625.36 462.77 629.73 471.62 633.03 480.75 635.25 490.15 636.46 499.81 636.71 509.73 636.14 519.88 634.87 530.27 633.08 540.86 630.95 551.63 628.67 562.57 626.45 573.65 624.5 584.84 623.02 596.12 622.19 607.44 622.18 618.79 623.14 630.12 625.17 641.41 628.35 652.63 632.73 663.74 638.31 674.71C648.34 690.17 648.03 698.9 635.41 688.97Q619.84 675.28 604.28 661.95 588.72 651 573.15 644.1 557.59 642.3 542.03 645.87 526.46 654.26 510.9 666.21 495.33 679.89 479.77 693.24 464.21 704.21 448.64 711.14 433.08 712.98 417.52 709.45 401.95 701.08 386.39 689.15 370.82 675.47 355.26 662.12 339.7 651.13 324.13 644.16 308.57 642.29 293.01 645.78 277.44 654.12 261.88 666.03 246.31 679.7 230.75 693.06 215.19 704.08 199.62 711.07 184.06 712.99 168.49 709.53 152.93 701.23 137.37 689.33C124.74 678.29 114.93 657.37 119.51 650.58Q126.76 640.93 134.81 630.95 144.29 620.16 154.57 608.74 165.89 596.07 177.56 582.56 183.45 575.3 189.26 567.75 194.94 559.9 200.43 551.76 205.65 543.33 210.57 534.62 215.14 525.64 219.33 516.42 223.12 506.95 226.49 497.27 229.47 487.39 232.08 477.33 234.34 467.12 236.31 456.78 238.04 446.33 239.62 435.81 241.11 425.23 242.6 414.63 244.18 404.02 245.93 393.44 247.93 382.9 250.26 372.44 252.99 362.07 256.16 351.81 259.83 341.68 264.02 331.71 268.73 321.89 273.96 312.26 279.67 302.81 285.84 293.55 292.39 284.5 299.24 275.66 306.32 267.03 313.53 258.6 320.76 250.38 327.9 242.36 334.85 234.53 341.51 226.88 347.78 219.42 353.57 212.11 363.17 197.99 370.88 184.22 375.47 170.87 378.41 157.67 379.59 137.93 379.8 131.33" stroke-dasharray="0 2" transform="rotate(4.04, 400, 400)" opacity="0.96"></path><path d="M385.57 142.27C385.7 132 403.34 138.09 415.9 152.75Q431.64 170.83 446.61 188.61 459.87 205.98 470.7 222.84 478.64 239.1 483.55 254.71 485.69 269.61 485.65 283.79 484.3 297.28 482.7 310.11 481.99 322.36 483.21 334.12 487.22 345.53 494.55 356.72 505.34 367.86 519.32 379.11 535.82 390.66 553.84 402.66 572.17 415.28 589.55 428.66 604.76 442.91 616.84 458.13 625.19 474.36 629.64 491.63 630.47 509.92 628.44 529.16 624.65 549.25 620.45 570.06 617.28 591.43 616.48 613.15 619.14 635 625.94 656.78C633.55 672.26 631.14 679.51 619.13 669.13Q604.34 656.11 589.54 644.55 574.75 636.07 559.95 631.87 545.16 632.52 530.37 637.93 515.57 647.36 500.78 659.47 485.98 672.58 471.19 684.83 456.39 694.52 441.6 700.28 426.8 701.31 412.01 697.46 397.22 689.28 382.42 677.91 367.63 664.94 352.83 652.19 338.04 641.45 323.24 634.23 308.45 631.54 293.65 633.75 278.86 640.55 264.06 651 249.27 663.63 234.47 676.66 219.68 688.27 204.88 696.83 190.09 701.14 175.3 700.6 160.5 695.28 145.71 685.93C133.7 676.27 124.68 656.24 129.43 649.54Q136.87 639.8 145.39 629.39 154.99 618.15 165.52 605.95 176.69 592.7 188.1 578.34 199.3 562.89 209.82 546.37 219.25 528.86 227.3 510.46 233.83 491.31 238.88 471.56 242.72 451.41 245.74 431.02 248.49 410.58 251.59 390.27 255.62 370.26 261.12 350.69 268.42 331.7 277.68 313.37 288.81 295.78 301.48 278.96 315.14 262.93 329.11 247.64 342.63 233.07 354.96 219.11 365.48 205.69 373.77 192.68 379.65 179.96 383.27 167.4 385.3 148.58 385.57 142.27" stroke-dasharray="1 10" transform="rotate(8.08, 400, 400)" opacity="0.92"></path><path d="M391.3 153.21C391.52 143.42 408.65 149.43 420.73 163.53Q435.33 180.94 448.68 198.08 460.05 214.84 468.95 231.14 475.13 246.89 478.62 262.04 479.8 276.53 479.27 290.36 477.88 303.53 476.58 316.06 476.35 328 478.08 339.45 482.45 350.49 489.89 361.25 500.46 371.86 513.9 382.48 529.62 393.24 546.75 404.31 564.25 415.84 580.99 427.97 595.91 440.81 608.14 454.48 617.06 469.05 622.43 484.56 624.38 501.04 623.43 518.47 620.45 536.8 616.54 555.95 612.94 575.8 610.87 596.2 611.43 617 615.44 638C620.72 653.13 616.15 659.43 604.73 649.35Q590.66 637.72 576.58 628.37 562.51 622.51 548.43 620.89 534.36 623.72 520.28 630.64 506.2 640.75 492.13 652.75 478.05 665.1 463.98 676.2 449.9 684.62 435.83 689.28 421.75 689.58 407.67 685.47 393.6 677.49 379.52 666.67 365.45 654.4 351.37 642.26 337.29 631.81 323.22 624.41 309.14 621.01 295.07 622.04 280.99 627.38 266.91 636.33 252.84 647.74 238.76 660.14 224.69 671.94 210.61 681.6 196.53 687.9 182.46 690 168.38 687.65 154.3 681.15C142.89 673.39 134.75 654.68 139.73 647.77Q147.53 637.57 156.36 626.54 166.16 614.59 176.7 601.64 187.67 587.67 198.68 572.68 209.31 556.7 219.14 539.8 227.83 522.08 235.18 503.67 241.08 484.7 245.64 465.34 249.09 445.73 251.83 426.06 254.37 406.48 257.25 387.15 261 368.19 266.09 349.73 272.86 331.87 281.45 314.67 291.83 298.18 303.73 282.43 316.71 267.4 330.19 253.05 343.49 239.35 355.95 226.19 366.94 213.51 376.01 201.18 382.88 189.1 387.53 177.15 390.74 159.22 391.3 153.21" stroke-dasharray="0 9" transform="rotate(12.12, 400, 400)" opacity="0.89"></path><path d="M396.72 164.16C397.34 154.85 413.95 160.76 425.19 174.31Q438.33 191.04 449.88 207.52 459.34 223.66 466.4 239.39 470.98 254.62 473.27 269.3 473.68 283.38 472.85 296.84 471.54 309.68 470.6 321.91 470.87 333.57 473.07 344.72 477.76 355.44 485.25 365.82 495.57 375.98 508.48 386.04 523.43 396.14 539.68 406.41 556.33 416.98 572.41 427.99 586.98 439.57 599.26 451.81 608.64 464.82 614.83 478.66 617.83 493.37 618 508.99 615.96 525.49 612.6 542.83 608.95 560.96 606.08 579.78 605.05 599.18 606.69 619C609.9 633.43 603.25 639.29 592.38 630.14Q578.97 620.46 565.56 613.59 552.15 610.35 538.75 611.12 525.34 615.8 511.93 623.85 498.52 634.32 485.12 645.96 471.71 657.42 458.3 667.32 444.89 674.51 431.49 678.14 418.08 677.77 404.67 673.45 391.26 665.7 377.86 655.42 364.45 643.83 351.04 632.3 337.63 622.19 324.23 614.68 310.82 610.68 297.41 610.64 284 614.58 270.6 622.03 257.19 632.11 243.78 643.63 230.37 655.23 216.97 665.54 203.56 673.35 190.15 677.73 176.75 678.16 163.34 674.61C152.47 669.06 145.25 652.04 150.51 644.72Q158.67 633.83 167.77 622.06 177.66 609.34 188.11 595.68 198.77 581.06 209.28 565.55 219.26 549.2 228.36 532.11 236.31 514.39 242.96 496.16 248.26 477.57 252.34 458.75 255.43 439.86 257.92 421.03 260.25 402.41 262.91 384.13 266.38 366.27 271.09 348.95 277.33 332.24 285.27 316.17 294.9 300.78 306.01 286.07 318.27 272.02 331.17 258.59 344.14 245.72 356.56 233.35 367.88 221.38 377.59 209.73 385.37 198.28 391.08 186.93 395.74 169.87 396.72 164.16" stroke-dasharray="11 8" transform="rotate(16.16, 400, 400)" opacity="0.85"></path><path d="M401.55 175.13C402.82 166.28 418.87 172.08 429.01 185.07Q440.45 201.12 450.13 216.94 457.71 232.46 463.07 247.6 466.26 262.3 467.56 276.49 467.41 290.15 466.43 303.23 465.31 315.73 464.78 327.66 465.54 339.04 468.18 349.91 473.14 360.33 480.65 370.39 490.7 380.16 503.05 389.75 517.24 399.28 532.62 408.86 548.42 418.62 563.82 428.66 577.98 439.12 590.21 450.09 599.93 461.68 606.83 473.96 610.81 487 612.08 500.85 611.08 515.52 608.47 531.02 605.1 547.32 601.89 564.37 599.75 582.09 599.56 600.4C601 613.87 592.52 619.72 582.15 612.03Q569.36 604.67 556.57 600.38 543.78 599.63 530.99 602.49 518.21 608.66 505.42 617.47 492.63 627.98 479.84 639.05 467.05 649.49 454.27 658.18 441.48 664.19 428.69 666.86 415.9 665.9 403.11 661.43 390.32 653.92 377.54 644.19 364.75 633.27 351.96 622.34 339.17 612.59 326.38 605.05 313.6 600.55 300.81 599.57 288.02 602.2 275.23 608.17 262.44 616.84 249.66 627.27 236.87 638.35 224.08 648.86 211.29 657.7 198.51 663.9 185.72 666.79 172.93 666.07C162.56 662.88 156.29 647.78 161.82 639.92Q170.3 628.25 179.57 615.7 189.46 602.27 199.68 587.99 209.92 572.89 219.85 557.04 229.12 540.53 237.47 523.45 244.68 505.93 250.64 488.09 255.36 470.05 258.99 451.94 261.75 433.9 263.99 416.03 266.12 398.46 268.58 381.28 271.78 364.58 276.12 348.42 281.85 332.85 289.15 317.9 298.03 303.58 308.35 289.89 319.83 276.79 332.08 264.25 344.6 252.21 356.85 240.6 368.32 229.33 378.53 218.33 387.1 207.5 393.8 196.74 400.07 180.56 401.55 175.13" stroke-dasharray="4 10" transform="rotate(20.200000000000003, 400, 400)" opacity="0.81"></path><path d="M405.56 186.1C407.66 177.74 423.1 183.4 431.92 195.82Q441.54 211.18 449.34 226.33 455.17 241.21 459.02 255.76 461.04 269.91 461.57 283.61 461.06 296.82 460.07 309.51 459.22 321.66 459.12 333.28 460.36 344.38 463.41 354.98 468.59 365.14 476.07 374.9 485.83 384.34 497.62 393.54 511.06 402.59 525.58 411.6 540.54 420.66 555.22 429.88 568.92 439.38 581.01 449.24 590.96 459.56 598.45 470.44 603.31 481.94 605.63 494.13 605.71 507.05 604.01 520.72 601.2 535.16 598.03 550.34 595.3 566.24 593.79 582.81C593.85 595.1 583.86 601.27 573.95 595.39Q561.74 590.54 549.53 588.78 537.32 590.27 525.11 594.88 512.9 602.14 500.69 611.35 488.48 621.62 476.27 631.93 464.06 641.29 451.85 648.76 439.64 653.64 427.43 655.43 415.21 653.97 403 649.39 390.79 642.15 378.58 632.94 366.37 622.68 354.16 612.37 341.95 603 329.74 595.5 317.53 590.6 305.32 588.78 293.11 590.22 280.89 594.77 268.68 601.99 256.47 611.18 244.26 621.43 232.05 631.75 219.84 641.13 207.63 648.65 195.42 653.58 183.21 655.43C173.3 654.53 167.91 641.47 173.7 633.03Q182.41 620.59 191.74 607.36 201.48 593.35 211.36 578.62 221.07 563.24 230.34 547.27 238.86 530.82 246.44 513.99 252.9 496.88 258.2 479.61 262.38 462.3 265.58 445.05 268.03 427.97 270.04 411.16 271.99 394.7 274.25 378.68 277.2 363.14 281.16 348.14 286.41 333.71 293.08 319.87 301.22 306.6 310.74 293.9 321.42 281.73 332.95 270.05 344.92 258.8 356.87 247.92 368.32 237.33 378.84 226.97 388.04 216.74 395.64 206.57 403.52 191.24 405.56 186.1" stroke-dasharray="5 1" transform="rotate(24.24, 400, 400)" opacity="0.77"></path><path d="M408.56 197.1C411.56 189.18 426.35 194.7 433.74 206.56Q441.5 221.22 447.52 235.7 451.76 249.94 454.31 263.88 455.4 277.47 455.38 290.65 454.68 303.4 453.81 315.68 453.3 327.47 453.66 338.77 455.36 349.58 458.76 359.92 464.12 369.81 471.53 379.31 480.96 388.46 492.19 397.33 504.88 405.99 518.56 414.52 532.68 423.01 546.62 431.55 559.81 440.23 571.67 449.15 581.74 458.38 589.69 468.03 595.32 478.15 598.62 488.83 599.76 500.12 599.08 512.06 597.04 524.68 594.25 538 591.37 552.02 589.07 566.71C588.15 577.68 577.08 584.44 567.62 580.56Q555.95 578.23 544.28 578.79 532.61 582.19 520.94 588.14 509.28 596.11 497.61 605.39 485.94 615.16 474.27 624.57 462.6 632.78 450.93 639.07 439.26 642.88 427.59 643.88 415.93 641.98 404.26 637.34 392.59 630.38 380.92 621.71 369.25 612.09 357.58 602.38 345.91 593.43 334.24 586.03 322.57 580.83 310.91 578.3 299.24 578.66 287.57 581.86 275.9 587.65 264.23 595.49 252.56 604.7 240.89 614.47 229.22 623.93 217.55 632.26 205.88 638.7 194.21 642.7C184.76 643.9 180.18 632.85 186.16 623.88Q194.97 610.8 204.22 597.05 213.67 582.66 223.08 567.72 232.18 552.28 240.71 536.44 248.46 520.28 255.25 503.91 260.99 487.42 265.66 470.91 269.32 454.48 272.12 438.21 274.28 422.2 276.08 406.51 277.85 391.22 279.92 376.37 282.62 362.01 286.24 348.17 291.01 334.86 297.08 322.09 304.49 309.85 313.21 298.1 323.07 286.83 333.83 275.97 345.15 265.49 356.65 255.33 367.93 245.41 378.57 235.66 388.21 226.03 396.55 216.44 405.96 201.96 408.56 197.1" stroke-dasharray="8 5" transform="rotate(28.28, 400, 400)" opacity="0.73"></path><path d="M410.39 208.1C414.31 200.64 428.41 206 434.32 217.29Q440.29 231.24 444.69 245.04 447.55 258.62 449.05 271.94 449.45 284.96 449.08 297.62 448.35 309.88 447.7 321.74 447.57 333.15 448.39 344.11 450.51 354.62 454.22 364.69 459.7 374.34 467.01 383.59 476.1 392.48 486.76 401.07 498.71 409.4 511.56 417.55 524.83 425.57 538.03 433.55 550.65 441.57 562.2 449.7 572.28 458.02 580.56 466.61 586.83 475.55 591.02 484.9 593.19 494.72 593.55 505.08 592.44 516.01 590.3 527.54 587.65 539.7 585.06 552.5C583.55 562.1 571.88 569.57 562.83 567.71Q551.68 567.73 540.53 570.31 529.38 575.23 518.23 582.1 507.08 590.38 495.93 599.42 484.77 608.5 473.62 616.89 462.47 623.94 451.32 629.08 440.17 631.91 429.02 632.2 417.87 629.93 406.72 625.27 395.57 618.61 384.41 610.46 373.26 601.48 362.11 592.37 350.96 583.85 339.81 576.61 328.66 571.22 317.51 568.09 306.36 567.49 295.2 569.46 284.05 573.84 272.9 580.28 261.75 588.28 250.6 597.2 239.45 606.34 228.3 614.96 217.15 622.39 205.99 628.04C196.94 630.99 193.08 621.81 199.14 612.45Q207.91 598.94 216.93 584.9 225.96 570.39 234.79 555.48 243.18 540.25 250.94 524.78 257.88 509.15 263.9 493.45 268.94 477.76 273.01 462.16 276.18 446.74 278.61 431.56 280.51 416.69 282.11 402.17 283.71 388.07 285.6 374.41 288.06 361.23 291.34 348.53 295.66 336.31 301.14 324.59 307.86 313.32 315.78 302.5 324.81 292.08 334.74 282.03 345.34 272.29 356.28 262.81 367.22 253.53 377.8 244.4 387.68 235.35 396.55 226.32 407.29 212.68 410.39 208.1" stroke-dasharray="1 2" transform="rotate(32.32, 400, 400)" opacity="0.70"></path><path d="M411.01 219.12C415.76 212.11 429.11 217.3 433.6 228.01Q437.93 241.25 440.91 254.35 442.65 267.27 443.35 279.96 443.27 292.39 442.74 304.5 442.12 316.27 441.77 327.67 442.06 338.68 443.32 349.29 445.83 359.49 449.8 369.28 455.35 378.67 462.52 387.68 471.23 396.33 481.33 404.67 492.55 412.73 504.57 420.56 517.01 428.21 529.44 435.75 541.46 443.23 552.64 450.72 562.62 458.3 571.1 466.02 577.87 473.96 582.82 482.18 585.94 490.74 587.34 499.71 587.24 509.12 585.95 519.02 583.85 529.45 581.39 540.43C579.67 548.68 567.85 556.88 559.21 556.91Q548.56 558.99 537.92 563.17 527.27 569.17 516.62 576.56 505.97 584.81 495.32 593.34 484.68 601.55 474.03 608.86 463.38 614.75 452.73 618.8 442.09 620.72 431.44 620.39 420.79 617.82 410.14 613.19 399.5 606.84 388.85 599.21 378.2 590.85 367.56 582.33 356.91 574.28 346.26 567.25 335.61 561.74 324.97 558.15 314.32 556.72 303.67 557.57 293.02 560.62 282.38 565.66 271.73 572.35 261.08 580.19 250.44 588.64 239.79 597.1 229.14 604.98 218.49 611.7C209.85 615.99 206.55 608.47 212.57 598.9Q221.14 585.22 229.76 571.17 238.25 556.81 246.39 542.2 254.02 527.43 260.96 512.57 267.1 497.67 272.37 482.83 276.73 468.1 280.24 453.55 282.96 439.24 285.05 425.22 286.7 411.53 288.12 398.23 289.57 385.32 291.28 372.85 293.51 360.81 296.48 349.23 300.35 338.08 305.28 327.35 311.31 317.04 318.45 307.1 326.64 297.51 335.74 288.22 345.54 279.19 355.81 270.38 366.26 261.73 376.59 253.19 386.49 244.71 395.69 236.24 407.47 223.42 411.01 219.12" stroke-dasharray="3 7" transform="rotate(36.36, 400, 400)" opacity="0.66"></path><path d="M410.39 230.14C415.85 223.58 428.39 228.58 431.59 238.7Q434.5 251.23 436.32 263.63 437.19 275.88 437.33 287.92 437 299.74 436.47 311.29 436.06 322.54 436.07 333.47 436.79 344.06 438.47 354.29 441.32 364.15 445.49 373.64 451.07 382.77 458.05 391.54 466.37 399.97 475.89 408.08 486.38 415.9 497.59 423.47 509.2 430.82 520.87 438 532.24 445.07 542.97 452.07 552.75 459.05 561.31 466.09 568.45 473.22 574.02 480.51 579.64 495.97 580.96 512.38 579.64 521.26 577.68 530.59C576.07 537.59 564.55 546.43 556.32 548.09Q546.17 551.82 536.02 557.16 525.87 563.8 515.73 571.31 505.58 579.21 495.43 587.02 485.28 594.25 475.14 600.43 464.99 605.19 454.84 608.23 444.7 609.34 434.55 608.48 424.4 605.68 414.25 601.12 404.11 595.1 393.96 587.98 383.81 580.22 373.67 572.29 363.52 564.71 353.37 557.94 343.23 552.41 333.08 548.46 322.93 546.35 312.78 546.2 302.64 548.03 292.49 551.72 282.34 557.03 272.2 563.64 262.05 571.13 251.9 579.04 241.76 586.85 231.61 594.1C223.38 599.23 220.48 593.1 226.35 583.51Q234.55 569.96 242.64 556.18 250.45 542.25 257.83 528.22 264.64 514.15 270.76 500.1 276.11 486.13 280.64 472.29 284.37 458.65 287.35 445.24 289.66 432.11 291.45 419.3 292.87 406.83 294.12 394.74 295.42 383.03 296.97 371.71 298.98 360.8 301.64 350.28 305.1 340.15 309.49 330.39 314.87 320.98 321.25 311.89 328.61 303.08 336.84 294.53 345.8 286.19 355.32 278.02 365.15 269.97 375.05 262.01 384.77 254.09 394.06 246.17 406.53 234.17 410.39 230.14" stroke-dasharray="1 3" transform="rotate(40.400000000000006, 400, 400)" opacity="0.62"></path><path d="M408.61 241.18C414.57 235.06 426.29 239.86 428.38 249.39Q430.13 261.18 431.05 272.88 431.32 284.44 431.13 295.83 430.73 307.03 430.35 317.99 430.24 328.7 430.64 339.14 431.78 349.28 433.84 359.1 436.98 368.61 441.3 377.78 446.84 386.62 453.6 395.14 461.51 403.34 470.45 411.23 480.23 418.83 490.64 426.17 501.43 433.28 512.31 440.19 523.01 446.93 533.23 453.55 542.72 460.08 551.24 466.58 563.96 479.71 572.58 493.15 574.64 507.59 573.57 522.89C572.32 528.79 561.49 538.09 553.67 541.05Q544.03 545.96 534.39 552 524.75 558.85 515.11 566.12 505.47 573.42 495.83 580.34 486.2 586.51 476.56 591.57 466.92 595.25 457.28 597.36 447.64 597.76 438 596.45 428.36 593.48 418.72 589.03 409.08 583.35 399.45 576.74 389.81 569.57 380.17 562.23 370.53 555.13 360.89 548.67 351.25 543.19 341.61 539 331.97 536.33 322.33 535.33 312.69 536.06 303.06 538.47 293.42 542.42 283.78 547.72 274.14 554.05 264.5 561.07 254.86 568.39 245.22 575.62C237.4 581.13 234.75 576.06 240.33 566.7Q247.99 553.58 255.41 540.37 262.46 527.13 269.02 513.9 274.99 500.73 280.28 487.68 284.86 474.78 288.71 462.08 291.85 449.61 294.34 437.41 296.28 425.51 297.79 413.92 299.01 402.67 300.11 391.77 301.26 381.22 302.66 371.04 304.46 361.2 306.83 351.72 309.9 342.56 313.78 333.71 318.53 325.16 324.18 316.87 330.72 308.82 338.09 300.97 346.18 293.28 354.86 285.73 363.97 278.28 373.29 270.88 382.63 263.51 391.77 256.13 404.56 244.93 408.61 241.18" stroke-dasharray="9 6" transform="rotate(44.44, 400, 400)" opacity="0.58"></path><path d="M405.8 252.23C412.04 246.55 422.91 251.14 424.11 260.07Q424.97 271.13 425.28 282.11 425.19 292.97 424.89 303.69 424.58 314.25 424.44 324.61 424.68 334.76 425.49 344.68 427.03 354.34 429.43 363.73 432.8 372.85 437.21 381.67 442.67 390.21 449.17 398.45 456.65 406.4 465 414.07 474.08 421.46 483.7 428.6 493.67 435.49 503.77 442.18 513.77 448.66 523.43 454.99 532.54 461.19 540.9 467.28 554.14 479.34 563.95 491.45 567.89 504.03 568.71 517.13C568.03 522.1 558.19 531.65 550.8 535.49Q541.68 541.09 532.56 547.38 523.45 554.06 514.33 560.81 505.22 567.3 496.1 573.22 486.99 578.29 477.87 582.26 468.76 584.94 459.64 586.21 450.53 586 441.41 584.32 432.3 581.26 423.18 576.95 414.06 571.61 404.95 565.5 395.83 558.9 386.72 552.14 377.6 545.54 368.49 539.42 359.37 534.07 350.26 529.75 341.14 526.66 332.03 524.96 322.91 524.73 313.8 525.98 304.68 528.64 295.57 532.6 286.45 537.65 277.34 543.56 268.22 550.05 259.11 556.79C251.71 562.23 249.19 557.9 254.35 548.98Q261.33 536.57 267.98 524.18 274.2 511.85 279.91 499.62 285.03 487.53 289.52 475.6 293.37 463.88 296.57 452.4 299.17 441.16 301.22 430.2 302.83 419.53 304.08 409.16 305.12 399.11 306.08 389.37 307.11 379.95 308.35 370.84 312.35 353.67 318.15 337.31 322.3 329.57 327.25 322.05 333 314.71 339.51 307.53 346.72 300.48 354.53 293.53 362.81 286.65 371.43 279.8 380.21 272.97 388.99 266.12 401.69 255.72 405.8 252.23" stroke-dasharray="5 8" transform="rotate(48.48, 400, 400)" opacity="0.54"></path><path d="M402.16 263.29C408.44 258.04 418.44 262.4 418.98 270.73Q419.26 281.05 419.22 291.3 419 301.46 418.76 311.5 418.65 321.4 418.83 331.14 419.46 340.71 420.66 350.08 422.56 359.23 425.24 368.16 428.78 376.86 433.22 385.31 438.55 393.5 444.77 401.44 451.8 409.12 459.56 416.54 467.93 423.72 476.78 430.65 485.95 437.35 495.26 443.84 504.53 450.12 513.59 456.22 522.24 462.16 530.34 467.97 543.8 479.25 554.48 490.38 560.12 501.56 562.85 512.96C562.83 517.19 554.21 526.71 547.25 531.03Q530.12 542.97 512.98 555.14 495.85 565.54 478.71 572.47 461.58 574.78 444.44 572.09 427.3 564.86 410.17 554.26 393.03 542.03 375.9 530.19 358.76 520.68 341.62 515.05 324.49 514.24 307.35 518.38 290.21 526.78 273.08 538.07C266.12 543.06 263.58 539.19 268.23 530.9Q274.42 519.44 280.23 508.07 285.58 496.84 290.42 485.76 294.72 474.85 298.45 464.15 301.61 453.68 304.22 443.44 306.33 433.45 307.99 423.73 309.3 414.28 310.33 405.1 312.08 387.72 314.05 371.15 317.56 355.83 322.6 341.19 330.83 327.48 341.14 314.2 347.46 307.76 354.37 301.39 361.78 295.06 369.58 288.76 377.66 282.45 385.88 276.12 398.13 266.52 402.16 263.29" stroke-dasharray="9 3" transform="rotate(52.52, 400, 400)" opacity="0.51"></path><path d="M397.92 274.37C404 269.55 413.12 273.65 413.25 281.38Q413.06 300.47 412.85 319.25 413.59 337.59 416.17 355.34 421.28 372.39 429.33 388.66 440.38 404.08 454.11 418.61 469.88 432.26 486.78 445.05 503.72 457.06 519.59 468.38 533.35 479.16 544.21 489.55 551.7 499.73 555.76 509.9C556.43 513.6 549.15 522.81 542.67 527.21Q526.68 538.44 510.69 548.94 494.7 557.25 478.71 562.19 462.73 563.07 446.74 559.78 430.75 552.76 414.76 543.01 398.78 531.89 382.79 520.97 366.8 511.76 350.81 505.57 334.82 503.26 318.83 505.16 302.85 510.99 286.86 519.95C280.38 524.2 277.71 520.57 281.77 513.05Q292.02 492.53 300.5 472.66 307.03 453.57 311.64 435.36 314.64 418.09 316.53 401.78 317.98 386.41 319.75 371.94 322.59 358.28 327.14 345.32 333.87 332.94 343.01 321 354.47 309.32 367.88 297.76 382.64 286.16 397.92 274.37 397.92 274.37 397.92 274.37" stroke-dasharray="0 8" transform="rotate(56.56, 400, 400)" opacity="0.47"></path><path d="M393.35 285.46C399.03 281.06 407.28 284.9 407.23 292.01Q407.03 309.6 407.31 326.95 408.77 343.93 412.03 360.45 417.54 376.41 425.54 391.73 436 406.36 448.66 420.24 463 433.35 478.33 445.72 493.84 457.36 508.67 468.33 522 478.72 533.15 488.62 541.65 498.15 547.28 507.46C548.61 510.78 542.69 519.45 536.7 523.58Q521.92 533.5 507.14 542.08 492.36 548.3 477.58 551.44 462.8 551.12 448.02 547.39 433.24 540.68 418.46 531.78 403.68 521.74 388.9 511.75 374.12 503 359.34 496.5 344.56 493.03 329.78 493 315 496.41 300.22 502.86C294.22 506.17 291.4 502.59 294.82 495.95Q303.29 477.93 310.12 460.6 315.28 444.04 318.87 428.28 321.2 413.35 322.7 399.22 323.92 385.86 325.46 373.21 327.9 361.19 331.76 349.7 337.44 338.64 345.14 327.89 354.87 317.31 366.44 306.79 386.4 290.83 393.35 285.46" stroke-dasharray="1 1" transform="rotate(60.599999999999994, 400, 400)" opacity="0.43"></path><path d="M388.75 296.55C393.85 292.57 401.25 296.14 401.21 302.63Q401.34 318.7 402.24 334.58 404.41 350.19 408.25 365.42 414.02 380.22 421.84 394.52 431.64 408.26 443.2 421.39 456.13 433.9 469.92 445.76 483.97 456.99 497.63 467.62 510.29 477.67 521.4 487.21 530.52 496.31 537.37 505.06C539.25 508.14 534.65 516.04 529.17 519.64Q515.65 527.83 502.14 534.37 488.62 538.64 475.11 540.21 461.59 538.92 448.07 534.92 434.56 528.58 421.04 520.53 407.52 511.55 394.01 502.52 380.49 494.33 366.97 487.77 353.46 483.48 339.94 481.89 326.42 483.14 312.91 487.13C307.42 489.44 304.45 485.79 307.2 480.08Q313.93 464.63 319.24 449.83 323.18 435.71 325.88 422.29 327.64 409.53 328.82 397.42 329.84 385.91 331.17 374.94 333.25 364.44 336.48 354.32 341.18 344.49 347.54 334.87 355.64 325.36 365.38 315.86 382.64 301.42 388.75 296.55" stroke-dasharray="11 8" transform="rotate(64.64, 400, 400)" opacity="0.39"></path><path d="M384.41 307.66C388.81 304.1 395.39 307.38 395.48 313.24Q396.16 327.78 397.75 342.18 400.56 356.36 404.84 370.27 410.71 383.84 418.22 397.03 427.3 409.78 437.75 422.07 449.29 433.85 461.55 445.12 474.11 455.86 486.51 466.08 498.29 475.78 509.02 485.01 518.35 493.79 526 502.17C528.3 505.1 524.9 512.08 519.95 514.98Q507.75 521.22 495.55 525.76 483.35 528.26 471.15 528.52 458.95 526.51 446.75 522.4 434.55 516.5 422.35 509.29 410.14 501.35 397.94 493.29 385.74 485.76 373.54 479.35 361.34 474.57 349.14 471.81 336.94 471.28 324.74 473.02C319.79 474.35 316.68 470.61 318.8 465.82Q323.92 452.87 327.87 440.49 330.74 428.67 332.71 417.4 334 406.65 334.91 396.39 335.76 386.56 336.89 377.12 338.63 368.01 341.28 359.15 345.1 350.5 350.25 341.96 356.81 333.48 364.78 324.98 379.23 312.03 384.41 307.66" stroke-dasharray="2 10" transform="rotate(68.68, 400, 400)" opacity="0.35"></path><path d="M380.61 318.78C384.26 315.63 390.02 318.59 390.35 323.83Q391.68 336.83 393.92 349.71 397.24 362.44 401.78 374.96 407.6 387.24 414.68 399.24 422.96 410.92 432.28 422.24 442.46 433.19 453.22 443.73 464.28 453.87 475.34 463.58 486.05 472.87 496.13 481.74 505.28 490.21 513.27 498.3C515.84 501.12 513.44 507.08 509.05 509.19Q498.2 513.45 487.36 516.16 476.52 517.16 465.67 516.39 454.83 513.88 443.98 509.81 433.14 504.42 422.3 498.05 411.45 491.1 400.61 484.01 389.76 477.23 378.92 471.17 368.07 466.22 357.23 462.69 346.38 460.8 335.54 460.67C331.15 461.12 327.96 457.35 329.52 453.42Q333.2 442.82 335.99 432.66 337.99 422.93 339.36 413.61 340.97 396.2 342.6 379.69 346.62 364.23 353.26 349.12 358.44 341.63 364.75 334.11 376.39 322.64 380.61 318.78" stroke-dasharray="9 5" transform="rotate(72.72, 400, 400)" opacity="0.32"></path><path d="M377.61 329.91C380.47 327.17 385.47 329.81 386.06 334.42Q388.02 345.85 390.79 357.19 394.46 368.43 399.09 379.53 404.68 390.45 411.22 401.18 418.63 411.68 426.82 421.93 435.65 431.91 444.94 441.59 454.51 450.97 464.16 460.04 473.67 468.78 482.84 477.18 491.45 485.27 499.34 493.02C501.96 495.74 500.4 500.66 496.56 501.99Q487.1 504.42 477.64 505.56 468.18 505.37 458.73 503.85 449.27 501.08 439.81 497.18 430.35 492.35 420.89 486.81 411.44 480.84 401.98 474.72 392.52 468.75 383.06 463.2 373.6 458.36 364.15 454.44 354.69 451.65 345.23 450.11C341.39 449.86 338.25 446.12 339.3 442.99Q343.35 426.48 345.83 410.85 347 396.45 348.33 382.62 351.49 369.4 356.6 356.35 371.7 336.58 377.61 329.91" stroke-dasharray="5 7" transform="rotate(76.76, 400, 400)" opacity="0.28"></path><path d="M375.61 341.05C377.73 338.71 381.99 341.03 382.81 344.99Q388.4 364.62 396.73 383.96 407.82 402.85 421.36 421.14 436.71 438.69 453.01 455.42 469.25 471.22 484.38 486.05C486.91 488.62 485.96 492.52 482.69 493.15Q466.57 493.96 450.46 490.94 434.34 484.51 418.23 475.57 402.11 465.38 385.99 455.36 369.88 446.92 353.76 441.25C350.49 440.51 347.51 436.95 348.17 434.5Q350.81 421.4 352.16 409.02 352.97 397.23 354.05 385.85 356.23 374.71 360.25 363.65 371.12 346.76 375.61 341.05" stroke-dasharray="7 4" transform="rotate(80.80000000000001, 400, 400)" opacity="0.24"></path><path d="M374.78 352.2C376.24 350.26 379.77 352.23 380.75 355.54Q386.77 371.99 394.7 388.26 404.49 404.25 415.89 419.88 428.53 435.06 441.93 449.72 455.51 463.78 468.67 477.21C470.94 479.56 470.4 482.51 467.7 482.59Q454.39 481.4 441.08 477.68 427.76 471.8 414.45 464.32 401.14 455.99 387.82 447.6 374.51 439.99 361.2 433.9C358.5 432.9 355.8 429.65 356.16 427.79Q357.6 417.69 358.37 407.98 358.93 398.56 359.78 389.32 361.4 380.17 364.23 370.99 371.69 356.95 374.78 352.2" stroke-dasharray="10 10" transform="rotate(84.84, 400, 400)" opacity="0.20"></path><path d="M375.18 363.37C376.1 361.82 378.91 363.42 379.96 366.09Q385.87 379.32 392.98 392.45 401.21 405.43 410.42 418.21 420.41 430.75 430.94 442.99 441.72 454.91 452.47 466.46C454.38 468.51 454.08 470.63 451.95 470.35Q441.42 467.99 430.88 464.16 420.34 459.08 409.8 453.09 399.27 446.55 388.73 439.88 378.19 433.49 367.65 427.79C365.52 426.75 363.23 423.96 363.4 422.57Q364.48 407.63 365.52 392.99 372.08 370.85 375.18 363.37" stroke-dasharray="3 5" transform="rotate(88.88, 400, 400)" opacity="0.16"></path><path d="M376.84 374.53C377.35 373.39 379.46 374.61 380.43 376.61Q391.52 396.52 404.94 416.14 420.07 435.32 436.07 453.9C437.53 455.54 437.36 456.96 435.78 456.51Q420.17 450.37 404.56 441.84 388.95 432.11 373.33 422.55C371.75 421.64 369.97 419.45 370.04 418.46Q370.52 407.6 371.26 396.77 374.97 380.17 376.84 374.53" stroke-dasharray="0 4" transform="rotate(92.92, 400, 400)" opacity="0.13"></path><path d="M379.7 385.72C379.93 384.95 381.35 385.78 382.12 387.14Q390.32 400.48 399.46 413.74 409.36 426.84 419.77 439.76C420.72 440.91 420.62 441.76 419.59 441.33Q409.31 436.41 399.04 430.61 388.77 424.27 378.49 417.81C377.45 417.16 376.25 415.65 376.27 415Q378.48 393.13 379.7 385.72" stroke-dasharray="7 8" transform="rotate(96.96, 400, 400)" opacity="0.09"></path></g></svg>